<svg id="bill-svgrepo-com" xmlns="http://www.w3.org/2000/svg" width="103.137" height="98.576" viewBox="0 0 103.137 98.576">
  <g id="Group_136" data-name="Group 136" transform="translate(0 0)">
    <rect id="Rectangle_272" data-name="Rectangle 272" width="60.647" height="98.576" fill="#bbc5d5"/>
    <rect id="Rectangle_273" data-name="Rectangle 273" width="30.108" height="3.589" transform="translate(15.27 11.824)" fill="#354052"/>
    <rect id="Rectangle_274" data-name="Rectangle 274" width="20.158" height="3.589" transform="translate(20.244 18.696)" fill="#354052"/>
    <rect id="Rectangle_275" data-name="Rectangle 275" width="46.445" height="2.936" transform="translate(7.101 35.661)" fill="#7f8fa4"/>
    <rect id="Rectangle_276" data-name="Rectangle 276" width="46.445" height="2.936" transform="translate(7.101 43.857)" fill="#7f8fa4"/>
    <rect id="Rectangle_277" data-name="Rectangle 277" width="24.936" height="2.936" transform="translate(9.047 57.955)" fill="#7f8fa4"/>
    <rect id="Rectangle_278" data-name="Rectangle 278" width="24.936" height="2.936" transform="translate(9.047 65.785)" fill="#7f8fa4"/>
    <rect id="Rectangle_279" data-name="Rectangle 279" width="24.936" height="2.936" transform="translate(9.047 73.615)" fill="#7f8fa4"/>
    <rect id="Rectangle_280" data-name="Rectangle 280" width="24.936" height="2.936" transform="translate(9.047 81.445)" fill="#7f8fa4"/>
    <rect id="Rectangle_281" data-name="Rectangle 281" width="9.928" height="2.936" transform="translate(41.672 57.955)" fill="#354052"/>
    <rect id="Rectangle_282" data-name="Rectangle 282" width="9.928" height="2.936" transform="translate(41.672 65.785)" fill="#354052"/>
    <rect id="Rectangle_283" data-name="Rectangle 283" width="9.928" height="2.936" transform="translate(41.672 73.615)" fill="#354052"/>
    <rect id="Rectangle_284" data-name="Rectangle 284" width="9.928" height="2.936" transform="translate(41.672 81.445)" fill="#354052"/>
  </g>
  <g id="Group_137" data-name="Group 137" transform="translate(41 23.716)">
    <rect id="Rectangle_285" data-name="Rectangle 285" width="58.485" height="29.39" transform="translate(62.137 25.024) rotate(135)" fill="#006132"/>
    <rect id="Rectangle_286" data-name="Rectangle 286" width="19.904" height="48.999" transform="translate(21.489 59.672) rotate(-135)" fill="#00783e"/>
    <ellipse id="Ellipse_197" data-name="Ellipse 197" cx="7.834" cy="5.839" rx="7.834" ry="5.839" transform="translate(35.66 43.919) rotate(-135)" fill="#006132"/>
  </g>
  <g id="Group_138" data-name="Group 138" transform="translate(53.55 30.93)">
    <ellipse id="Ellipse_198" data-name="Ellipse 198" cx="9.347" cy="9.347" rx="9.347" ry="9.347" fill="#fff3c7"/>
    <ellipse id="Ellipse_199" data-name="Ellipse 199" cx="6.668" cy="6.668" rx="6.668" ry="6.668" transform="translate(2.678 2.678)" fill="#fbb900"/>
  </g>
  <g id="Group_139" data-name="Group 139" transform="translate(67.306 6.861)">
    <ellipse id="Ellipse_200" data-name="Ellipse 200" cx="9.161" cy="9.161" rx="9.161" ry="9.161" fill="#7f8fa4"/>
    <ellipse id="Ellipse_201" data-name="Ellipse 201" cx="6.536" cy="6.536" rx="6.536" ry="6.536" transform="translate(2.625 2.625)" fill="#bbc5d5"/>
  </g>
</svg>
