<svg id="Component_35_1" data-name="Component 35 – 1" xmlns="http://www.w3.org/2000/svg" width="48" height="48" viewBox="0 0 48 48">
  <g id="Rectangle_18" data-name="Rectangle 18" fill="none" stroke="#bbc5d5" stroke-width="1">
    <rect width="48" height="48" rx="5" stroke="none"/>
    <rect x="0.5" y="0.5" width="47" height="47" rx="4.5" fill="none"/>
  </g>
  <path id="local_police_FILL0_wght400_GRAD0_opsz48" d="M15.356,22.43,19,19.7l3.541,2.73-1.478-4.41,3.644-2.66h-4.4L19,10.985,17.694,15.36h-4.4l3.575,2.66ZM19,31.95a13.505,13.505,0,0,1-7.906-5.687A16.806,16.806,0,0,1,8,16.48V8.15l11-4.2,11,4.2v8.33a16.806,16.806,0,0,1-3.094,9.783A13.505,13.505,0,0,1,19,31.95Zm0-13.58Zm0,11.41a12.43,12.43,0,0,0,6.445-5.022,14.463,14.463,0,0,0,2.492-8.278V9.62L19,6.19,10.063,9.62v6.86a14.463,14.463,0,0,0,2.492,8.278A12.43,12.43,0,0,0,19,29.78Z" transform="translate(5 7.05)" fill="#fbb900"/>
</svg>
