<svg id="Component_71_1" data-name="Component 71 – 1" xmlns="http://www.w3.org/2000/svg" width="136" height="200" viewBox="0 0 136 200">
  <g id="Rectangle" fill="none" stroke="#e9ebef" stroke-miterlimit="10" stroke-width="4">
    <rect width="136" height="200" rx="8" stroke="none"/>
    <rect x="2" y="2" width="132" height="196" rx="6" fill="none"/>
  </g>
  <text id="Total_Bookings" data-name="Total Bookings" transform="translate(27.265 167.505)" fill="#bbc5d5" font-size="10" font-family="Lato-Black, Lato" font-weight="800"><tspan x="0" y="0">BANKING SERVICES</tspan></text>
  <g id="Group_179" data-name="Group 179" transform="translate(-765 -874)">
    <g id="financial-svgrepo-com" transform="translate(779 896.603)">
      <g id="Group_141" data-name="Group 141">
        <g id="Group_140" data-name="Group 140">
          <path id="Path_1305" data-name="Path 1305" d="M108.456,17.493v-7A10.506,10.506,0,0,0,97.961,0H27.989a10.506,10.506,0,0,0-10.5,10.5v5.124L15.92,14.047,3.551,26.416l4.713,4.713a27.839,27.839,0,0,0-1.592,3.857H0V52.479H6.67a27.839,27.839,0,0,0,1.592,3.857L3.549,61.049,15.919,73.418l1.574-1.573V90.963H0v7a10.506,10.506,0,0,0,10.5,10.5H80.468a10.506,10.506,0,0,0,10.5-10.5V78.4a5.215,5.215,0,0,0,2.568-7.9l9.042-18.082a5.382,5.382,0,0,0,.635.063,5.272,5.272,0,1,0-3.773-1.615L90.963,67.81V17.493Zm-17.493-7a7,7,0,0,1,13.994,0v3.5H90.963Zm12.245,34.986a1.749,1.749,0,1,1-1.749,1.749A1.75,1.75,0,0,1,103.208,45.482ZM15.92,68.473,8.5,61.049l4.1-4.1-.659-1.16a24.367,24.367,0,0,1-2.283-5.528L9.3,48.98H3.5v-10.5H9.3L9.654,37.2a24.334,24.334,0,0,1,2.283-5.528l.659-1.16-4.1-4.1,7.422-7.422,4.1,4.1,1.16-.659A24.334,24.334,0,0,1,26.7,20.152l1.284-.357v-5.8h10.5v5.8l1.282.355a24.334,24.334,0,0,1,5.528,2.283l1.16.659,4.1-4.1,7.422,7.422-4.1,4.1.659,1.16A24.368,24.368,0,0,1,56.817,37.2l.357,1.284h5.8v10.5h-5.8l-.355,1.282a24.334,24.334,0,0,1-2.283,5.528l-.659,1.16,4.1,4.1-7.422,7.422-4.1-4.1-1.16.659a24.367,24.367,0,0,1-5.528,2.283l-1.284.357v5.8h-10.5v-5.8l-1.282-.355a24.335,24.335,0,0,1-5.528-2.283l-1.16-.659ZM10.5,104.958a7,7,0,0,1-7-7v-3.5H69.972v3.5a10.461,10.461,0,0,0,2.678,7Zm76.969-7a7,7,0,0,1-13.994,0v-7H20.992V68.87a27.556,27.556,0,0,0,3.5,1.427v6.672H41.983V70.3a27.838,27.838,0,0,0,3.857-1.592l4.713,4.713L62.922,61.05,58.21,56.338A27.84,27.84,0,0,0,59.8,52.481h6.672V34.986H59.8a27.84,27.84,0,0,0-1.592-3.857l4.713-4.713L50.553,14.047,45.84,18.759a27.84,27.84,0,0,0-3.857-1.592V10.5H24.49v6.672a27.813,27.813,0,0,0-3.5,1.427V10.5a7,7,0,0,1,7-7h62.17a10.445,10.445,0,0,0-2.694,7V68.544a5.223,5.223,0,0,0-1.835,1.113l-8.93-5.1a5.194,5.194,0,0,0,.269-1.58,5.248,5.248,0,1,0-10.5,0A5.162,5.162,0,0,0,67,65.222L56.478,75.744a5.2,5.2,0,0,0-2.25-.525,5.248,5.248,0,1,0,5.248,5.248,5.187,5.187,0,0,0-.527-2.248L69.472,67.7a5.143,5.143,0,0,0,5.1-.329l9.464,5.407a5.047,5.047,0,0,0-.07.694,5.238,5.238,0,0,0,3.5,4.926ZM73.47,62.975a1.749,1.749,0,1,1-1.749-1.749A1.75,1.75,0,0,1,73.47,62.975ZM55.977,80.468a1.749,1.749,0,1,1-1.749-1.749A1.75,1.75,0,0,1,55.977,80.468ZM89.214,75.22a1.749,1.749,0,1,1,1.749-1.749A1.75,1.75,0,0,1,89.214,75.22Z" fill="#354052"/>
          <path id="Path_1306" data-name="Path 1306" d="M97.983,124.992a20.992,20.992,0,1,0-20.992,20.992A21.015,21.015,0,0,0,97.983,124.992Zm-38.485,0a17.493,17.493,0,1,1,17.493,17.493A17.513,17.513,0,0,1,59.5,124.992Z" transform="translate(-43.755 -81.259)" fill="#354052"/>
          <path id="Path_1307" data-name="Path 1307" d="M122.5,163.989v-3.5h.875a6.123,6.123,0,0,0,0-12.245h-5.248a2.624,2.624,0,1,1,0-5.248h5.248a2.627,2.627,0,0,1,2.624,2.624v.875h3.5v-.875a6.129,6.129,0,0,0-6.123-6.123H122.5V136H119v3.5h-.875a6.123,6.123,0,0,0,0,12.245h5.248a2.624,2.624,0,1,1,0,5.248h-5.248a2.627,2.627,0,0,1-2.624-2.624v-.875H112v.875a6.129,6.129,0,0,0,6.123,6.123H119v3.5Z" transform="translate(-87.51 -106.262)" fill="#354052"/>
          <rect id="Rectangle_287" data-name="Rectangle 287" width="3.177" height="3.63" transform="translate(73.63 6.807)" fill="#354052"/>
          <rect id="Rectangle_288" data-name="Rectangle 288" width="3.499" height="3.499" transform="translate(70.268 8.319) rotate(45)" fill="#354052"/>
          <rect id="Rectangle_289" data-name="Rectangle 289" width="3.63" height="3.63" transform="translate(66.37 14.068)" fill="#354052"/>
          <rect id="Rectangle_290" data-name="Rectangle 290" width="3.499" height="3.499" transform="translate(70.269 23.168) rotate(-135)" fill="#354052"/>
          <rect id="Rectangle_291" data-name="Rectangle 291" width="3.177" height="3.63" transform="translate(73.63 20.874)" fill="#354052"/>
          <rect id="Rectangle_292" data-name="Rectangle 292" width="3.499" height="3.499" transform="translate(80.168 23.168) rotate(-135)" fill="#354052"/>
          <rect id="Rectangle_293" data-name="Rectangle 293" width="3.63" height="3.63" transform="translate(80.437 14.068)" fill="#354052"/>
          <rect id="Rectangle_294" data-name="Rectangle 294" width="3.499" height="3.499" transform="translate(80.165 8.317) rotate(45)" fill="#354052"/>
          <rect id="Rectangle_295" data-name="Rectangle 295" width="3.177" height="19.059" transform="translate(73.63 28.135)" fill="#354052"/>
          <rect id="Rectangle_296" data-name="Rectangle 296" width="3.177" height="3.177" transform="translate(73.63 50.825)" fill="#354052"/>
        </g>
      </g>
    </g>
    <circle id="Ellipse_206" data-name="Ellipse 206" cx="6" cy="6" r="6" transform="translate(848 906)" fill="#fbb900"/>
  </g>
</svg>
