<svg id="Component_36_1" data-name="Component 36 – 1" xmlns="http://www.w3.org/2000/svg" width="48" height="48" viewBox="0 0 48 48">
  <g id="Rectangle_4" data-name="Rectangle 4" fill="none" stroke="#bbc5d5" stroke-width="1">
    <rect width="48" height="48" rx="5" stroke="none"/>
    <rect x="0.5" y="0.5" width="47" height="47" rx="4.5" fill="none"/>
  </g>
  <path id="assignment_FILL0_wght400_GRAD0_opsz48" d="M10.889,24.4h8.342V22.3H10.889Zm0-5.95H23.111v-2.1H10.889Zm0-5.95H23.111V10.4H10.889ZM7.833,27.9H26.167V6.9H7.833v21Zm0-21h0v21h0V6.9Zm0,23.1a1.663,1.663,0,0,1-1.3-.612A2.183,2.183,0,0,1,6,27.9V6.9a2.183,2.183,0,0,1,.535-1.487,1.663,1.663,0,0,1,1.3-.613H14.1a3.243,3.243,0,0,1,.978-2.012,2.747,2.747,0,0,1,3.85,0A3.243,3.243,0,0,1,19.9,4.8h6.264a1.663,1.663,0,0,1,1.3.613A2.183,2.183,0,0,1,28,6.9v21a2.183,2.183,0,0,1-.535,1.488,1.663,1.663,0,0,1-1.3.612ZM17,6.3a.968.968,0,0,0,.749-.367,1.306,1.306,0,0,0,0-1.715.946.946,0,0,0-1.5,0,1.306,1.306,0,0,0,0,1.715A.968.968,0,0,0,17,6.3Z" transform="translate(7 8)" fill="#fbb900"/>
</svg>
