<svg id="Component_70_1" data-name="Component 70 – 1" xmlns="http://www.w3.org/2000/svg" width="136" height="200" viewBox="0 0 136 200">
  <g id="Rectangle" fill="none" stroke="#e9ebef" stroke-miterlimit="10" stroke-width="4">
    <rect width="136" height="200" rx="8" stroke="none"/>
    <rect x="2" y="2" width="132" height="196" rx="6" fill="none"/>
  </g>
  <text id="Total_Bookings" data-name="Total Bookings" transform="translate(35.619 167.505)" fill="#bbc5d5" font-size="10" font-family="Lato-Black, Lato" font-weight="800"><tspan x="0" y="0">AML SOLUTION</tspan></text>
  <g id="solution-svgrepo-com" transform="translate(18 22.815)">
    <g id="Group_163" data-name="Group 163" transform="translate(0 0.001)">
      <path id="Path_1383" data-name="Path 1383" d="M170.391,3.254a5.648,5.648,0,0,0-3.308,1.078,5.639,5.639,0,0,0-8.131-1.626,5.678,5.678,0,0,0-10.515,2.988V24.347a25.891,25.891,0,0,0-12.5-3.205,29.526,29.526,0,0,0-19.52,7.471,6.184,6.184,0,0,0-2.126,5.006,6.267,6.267,0,0,0,10.4,4.4,17.078,17.078,0,0,1,11.244-4.326c6.542,0,10.928,4.773,12.5,6.8V57.085c-1.569,2.031-5.955,6.8-12.5,6.8A17.088,17.088,0,0,1,124.7,59.565a6.266,6.266,0,0,0-10.4,4.394,6.183,6.183,0,0,0,2.126,5.006,29.538,29.538,0,0,0,19.52,7.469,25.767,25.767,0,0,0,7.619-1.151v25.545H171.2V69.488a11.425,11.425,0,0,0,4.879-9.317V8.944A5.7,5.7,0,0,0,170.391,3.254Zm2.439,56.918a8.167,8.167,0,0,1-4.07,7.024l-.808.47v29.91H146.81V70.547l-2.243.92a22.618,22.618,0,0,1-8.629,1.714,26.315,26.315,0,0,1-17.385-6.671,2.958,2.958,0,0,1-1.013-2.391,3.014,3.014,0,0,1,5.022-2.1,20.292,20.292,0,0,0,13.376,5.118c8.582,0,13.989-6.552,15.441-8.562l.309-.423V39.425L151.379,39c-1.452-2.008-6.86-8.564-15.441-8.564a20.3,20.3,0,0,0-13.376,5.121,3.015,3.015,0,0,1-5.022-2.1,2.96,2.96,0,0,1,1.013-2.391,26.333,26.333,0,0,1,17.385-6.668,23.121,23.121,0,0,1,13.208,4.192l2.542,1.734V5.693a2.439,2.439,0,1,1,4.879,0V39.031h3.253V7.319a2.439,2.439,0,1,1,4.879,0V39.031h3.253V8.945a2.439,2.439,0,1,1,4.879,0Z" transform="translate(-75.256 -0.001)" fill="#354052"/>
      <path id="Path_1384" data-name="Path 1384" d="M34.151,102.8H24.473l1-2.278a6.428,6.428,0,0,0,.55-2.6,6.505,6.505,0,0,0-13.01,0,6.422,6.422,0,0,0,.55,2.6l1,2.278H4.879A4.885,4.885,0,0,1,0,97.917V88.239l2.278,1a6.428,6.428,0,0,0,2.6.55,6.505,6.505,0,0,0,0-13.01,6.422,6.422,0,0,0-2.6.55L0,78.322V68.644a4.885,4.885,0,0,1,4.879-4.879H9.9a9.533,9.533,0,0,1-.138-1.626,9.757,9.757,0,1,1,19.515,0,9.5,9.5,0,0,1-.138,1.626h5.017a4.885,4.885,0,0,1,4.879,4.879v5.017a9.533,9.533,0,0,1,1.626-.138,9.757,9.757,0,1,1,0,19.515A9.5,9.5,0,0,1,39.03,92.9v5.017A4.885,4.885,0,0,1,34.151,102.8Z" transform="translate(0 -34.493)" fill="#fbb900"/>
    </g>
  </g>
</svg>
