<svg id="Component_34_1" data-name="Component 34 – 1" xmlns="http://www.w3.org/2000/svg" width="48" height="48" viewBox="0 0 48 48">
  <g id="Rectangle_17" data-name="Rectangle 17" fill="none" stroke="#bbc5d5" stroke-width="1">
    <rect width="48" height="48" rx="5" stroke="none"/>
    <rect x="0.5" y="0.5" width="47" height="47" rx="4.5" fill="none"/>
  </g>
  <path id="emoji_objects_FILL0_wght400_GRAD0_opsz48" d="M20.5,32a3.5,3.5,0,0,1-1.8-.455,2.084,2.084,0,0,1-1.005-1.26h-.531a2.275,2.275,0,0,1-1.593-.63,1.943,1.943,0,0,1-.683-1.47v-5a11.478,11.478,0,0,1-3.945-3.85A9.7,9.7,0,0,1,9.5,14.15a9.423,9.423,0,0,1,3.205-7.192A11.077,11.077,0,0,1,20.5,4a11.077,11.077,0,0,1,7.795,2.958A9.423,9.423,0,0,1,31.5,14.15a9.7,9.7,0,0,1-1.441,5.18,11.478,11.478,0,0,1-3.945,3.85v5a1.943,1.943,0,0,1-.683,1.47,2.275,2.275,0,0,1-1.593.63h-.531a2.084,2.084,0,0,1-1.005,1.26A3.5,3.5,0,0,1,20.5,32Zm-3.338-3.815h6.676v-1.54H17.162Zm0-2.94h6.676v-1.4H17.162Zm-.341-3.5h2.807v-4.8l-3.49-3.22,1.176-1.085,3.186,2.94,3.186-2.94,1.176,1.085-3.49,3.22v4.8h2.807A8.248,8.248,0,0,0,27.84,18.7a8,8,0,0,0,1.384-4.55A7.482,7.482,0,0,0,26.7,8.427,8.805,8.805,0,0,0,20.5,6.1a8.805,8.805,0,0,0-6.2,2.327,7.482,7.482,0,0,0-2.522,5.722A8,8,0,0,0,13.16,18.7,8.248,8.248,0,0,0,16.821,21.745ZM20.5,15.585Zm0-1.68Z" transform="translate(3.5 7)" fill="#fbb900"/>
</svg>
