<svg id="Component_68_1" data-name="Component 68 – 1" xmlns="http://www.w3.org/2000/svg" width="136" height="200" viewBox="0 0 136 200">
  <g id="Rectangle" fill="none" stroke="#e9ebef" stroke-miterlimit="10" stroke-width="4">
    <rect width="136" height="200" rx="8" stroke="none"/>
    <rect x="2" y="2" width="132" height="196" rx="6" fill="none"/>
  </g>
  <text id="Total_Bookings" data-name="Total Bookings" transform="translate(31 167.505)" fill="#bbc5d5" font-size="10" font-family="Lato-Black, Lato" font-weight="800"><tspan x="0" y="0">CUSTOMER 360</tspan></text>
  <g id="customer-service-svgrepo-com" transform="translate(17.544 27.212)">
    <g id="Group_147" data-name="Group 147" transform="translate(2.456)">
      <path id="Path_1343" data-name="Path 1343" d="M68.547,3.5V40.171a3.5,3.5,0,0,1-3.5,3.5H5.96a3.5,3.5,0,0,1-3.5-3.5V3.5A3.5,3.5,0,0,1,5.96,0H65.045a3.5,3.5,0,0,1,3.5,3.5Z" transform="translate(-2.457 -0.002)" fill="#e6e6e6"/>
      <path id="Path_1344" data-name="Path 1344" d="M68.546,3.5V6.988H2.456V3.5A3.5,3.5,0,0,1,5.958,0H65.043A3.5,3.5,0,0,1,68.546,3.5Z" transform="translate(-2.456 0)" fill="#354052"/>
      <circle id="Ellipse_202" data-name="Ellipse 202" cx="2.184" cy="2.184" r="2.184" transform="translate(2.62 1.31)" fill="#fc7a51"/>
      <circle id="Ellipse_203" data-name="Ellipse 203" cx="2.184" cy="2.184" r="2.184" transform="translate(8.443 1.31)" fill="#fbb900"/>
    </g>
    <g id="Group_148" data-name="Group 148" transform="translate(8.981 13.346)">
      <rect id="Rectangle_301" data-name="Rectangle 301" width="50.737" height="2.375" fill="#354052"/>
      <rect id="Rectangle_302" data-name="Rectangle 302" width="50.737" height="2.375" transform="translate(0 5.201)" fill="#354052"/>
      <rect id="Rectangle_303" data-name="Rectangle 303" width="50.737" height="2.375" transform="translate(0 10.403)" fill="#354052"/>
      <rect id="Rectangle_304" data-name="Rectangle 304" width="50.737" height="2.375" transform="translate(0 15.604)" fill="#354052"/>
      <rect id="Rectangle_305" data-name="Rectangle 305" width="50.737" height="2.375" transform="translate(0 20.805)" fill="#354052"/>
    </g>
    <path id="Path_1345" data-name="Path 1345" d="M179.763,89.3l-8.837,8.15a10.4,10.4,0,0,1-14.1,0L148,89.3a10.636,10.636,0,0,1-3.394-8.612l.514-10.579a18.514,18.514,0,0,1,.276-2.094,18.826,18.826,0,0,1,31.284-10.29,19.1,19.1,0,0,1,1.593,1.671,18.722,18.722,0,0,1,4.1,8.619,18.5,18.5,0,0,1,.276,2.094l.512,10.579A10.635,10.635,0,0,1,179.763,89.3Z" transform="translate(-111.433 -41.324)" fill="#fcd18b"/>
    <path id="Path_1346" data-name="Path 1346" d="M217.048,209.692a6.441,6.441,0,1,1-12.881,0Z" transform="translate(-158.161 -164.419)" fill="#fff"/>
    <path id="Path_1347" data-name="Path 1347" d="M170.645,37.5h-2.807a21.265,21.265,0,1,0-42.53,0H122.5a24.072,24.072,0,1,1,48.144,0Z" transform="translate(-94.127 -10.529)" fill="#fbb900"/>
    <path id="Path_1348" data-name="Path 1348" d="M185.344,68.013a18.722,18.722,0,0,0-4.1-8.619,19.1,19.1,0,0,0-1.593-1.671q-.338-.314-.693-.61c-.047-.04-.1-.077-.144-.116-.193-.159-.388-.315-.587-.466l-.038-.03h0a18.808,18.808,0,0,0-22.668,0h0l-.014.011q-.391.3-.766.612l-.073.061q-.359.305-.7.628l-.083.077q-.345.329-.673.675l-.06.063q-.352.374-.684.768a18.725,18.725,0,0,0-4.1,8.617,15.84,15.84,0,0,0,7.15-4.211,15.861,15.861,0,0,0,22.672,0A15.839,15.839,0,0,0,185.344,68.013Z" transform="translate(-114.41 -41.325)" fill="#354052"/>
    <g id="Group_149" data-name="Group 149" transform="translate(41.867 33.239)">
      <circle id="Ellipse_204" data-name="Ellipse 204" cx="2.159" cy="2.159" r="2.159" fill="#344248"/>
      <circle id="Ellipse_205" data-name="Ellipse 205" cx="2.159" cy="2.159" r="2.159" transform="translate(16.84)" fill="#344248"/>
    </g>
    <g id="Group_150" data-name="Group 150" transform="translate(38.002 54.181)">
      <path id="Path_1349" data-name="Path 1349" d="M169.9,250.953l11.011,11.011-5.182,8.42L167.1,253.112Z" transform="translate(-167.095 -250.953)" fill="#e6e6e6"/>
      <path id="Path_1350" data-name="Path 1350" d="M247.906,250.953,236.9,261.964l5.182,8.42,8.636-17.272Z" transform="translate(-221.825 -250.953)" fill="#e6e6e6"/>
    </g>
    <path id="Path_1351" data-name="Path 1351" d="M225.96,316.135l-3.053-5.182-3.053,5.182,3.053,3.053Z" transform="translate(-170.461 -243.818)" fill="#fbb900"/>
    <path id="Path_1352" data-name="Path 1352" d="M211.9,363.561l-8.4-14.248-8.4,14.248,8.4,8.4Z" transform="translate(-151.06 -273.896)" fill="#fbb900"/>
    <path id="Path_1353" data-name="Path 1353" d="M135.294,195.941a1.4,1.4,0,0,1-1.4,1.4h-6.635a5.637,5.637,0,0,1-5.637-5.637v-3.755h2.807v3.755a2.831,2.831,0,0,0,2.83,2.83h6.635A1.4,1.4,0,0,1,135.294,195.941Z" transform="translate(-93.435 -147.374)" fill="#fc7a51"/>
    <g id="Group_151" data-name="Group 151" transform="translate(22.785 24.581)">
      <path id="Path_1354" data-name="Path 1354" d="M105.434,113.853a8.818,8.818,0,1,0,0,17.635" transform="translate(-96.616 -113.853)" fill="#29abe2"/>
      <path id="Path_1355" data-name="Path 1355" d="M330.533,113.853a8.818,8.818,0,0,1,0,17.635" transform="translate(-280.03 -113.853)" fill="#29abe2"/>
    </g>
    <path id="Path_1356" data-name="Path 1356" d="M164.964,219.856a1.4,1.4,0,0,1-1.4,1.4h-4.1v-2.807h4.1A1.4,1.4,0,0,1,164.964,219.856Z" transform="translate(-123.106 -171.289)" fill="#344248"/>
    <g id="Group_153" data-name="Group 153" transform="translate(68.366 51.353)">
      <path id="Path_1357" data-name="Path 1357" d="M336.257,284.5H310.3a2.566,2.566,0,0,1-2.566-2.566V248.42a2.566,2.566,0,0,1,2.566-2.566h25.957a2.566,2.566,0,0,1,2.566,2.566v33.514A2.567,2.567,0,0,1,336.257,284.5Z" transform="translate(-307.733 -244.127)" fill="#354052"/>
      <rect id="Rectangle_306" data-name="Rectangle 306" width="24.613" height="32.169" transform="translate(3.239 4.966)" fill="#e6e6e6"/>
      <path id="Path_1358" data-name="Path 1358" d="M366.167,237.854h-5.8a1.635,1.635,0,0,0-1.635,1.635v5.49H367.8v-5.49A1.635,1.635,0,0,0,366.167,237.854Z" transform="translate(-347.723 -237.854)" fill="#7f8fa4"/>
      <g id="Group_152" data-name="Group 152" transform="translate(6.261 10.363)">
        <rect id="Rectangle_307" data-name="Rectangle 307" width="18.568" height="2.375" fill="#7f8fa4"/>
        <rect id="Rectangle_308" data-name="Rectangle 308" width="18.568" height="2.375" transform="translate(0 5.202)" fill="#7f8fa4"/>
        <rect id="Rectangle_309" data-name="Rectangle 309" width="18.568" height="2.375" transform="translate(0 10.403)" fill="#7f8fa4"/>
        <rect id="Rectangle_310" data-name="Rectangle 310" width="18.568" height="2.375" transform="translate(0 15.604)" fill="#7f8fa4"/>
        <rect id="Rectangle_311" data-name="Rectangle 311" width="9.284" height="2.375" transform="translate(0 20.806)" fill="#7f8fa4"/>
      </g>
    </g>
    <path id="Path_1359" data-name="Path 1359" d="M15.17,239.366a11.872,11.872,0,0,0-7.563,21.023l-2.4,6.73,6.19-4.623,0,0a11.872,11.872,0,1,0,3.779-23.126Z" transform="translate(-0.66 -187.686)" fill="#fc7a51"/>
    <g id="Group_154" data-name="Group 154" transform="translate(10.811 54.999)">
      <path id="Path_1360" data-name="Path 1360" d="M43.051,265.225a4.961,4.961,0,0,1,.345-1.9,3.15,3.15,0,0,1,1.424-1.467q.324-.194.8-.442a6.5,6.5,0,0,0,.928-.593,3.4,3.4,0,0,0,.766-.809,1.865,1.865,0,0,0,.313-1.068,1.765,1.765,0,0,0-.173-.8,1.825,1.825,0,0,0-.453-.582,1.887,1.887,0,0,0-.658-.356,2.55,2.55,0,0,0-.766-.118,2.224,2.224,0,0,0-.863.162,2.937,2.937,0,0,0-.7.41,3.448,3.448,0,0,0-.561.561,6.155,6.155,0,0,0-.421.593l-1.877-1.294a4.187,4.187,0,0,1,.744-1.186,4.553,4.553,0,0,1,1.057-.874,4.943,4.943,0,0,1,1.284-.539,5.531,5.531,0,0,1,1.424-.183,5.656,5.656,0,0,1,1.618.237,4.11,4.11,0,0,1,1.434.755,3.916,3.916,0,0,1,1.035,1.327,4.323,4.323,0,0,1,.4,1.931,4.166,4.166,0,0,1-.162,1.219,3.4,3.4,0,0,1-.464.96,4.048,4.048,0,0,1-.712.777,8.127,8.127,0,0,1-.928.669q-.432.259-.863.5a5.2,5.2,0,0,0-.787.529,2.572,2.572,0,0,0-.583.669,1.752,1.752,0,0,0-.226.917H43.051Zm.043,5.026v-2.977h2.394v2.977Z" transform="translate(-41.153 -254.742)" fill="#fff"/>
    </g>
    <g id="Group_156" data-name="Group 156" transform="translate(22.727 62.601)">
      <path id="Path_1361" data-name="Path 1361" d="M115.78,296.681l2.4-6.73-6.19,4.623,0,0a11.87,11.87,0,1,0,3.784,2.1Z" transform="translate(-96.345 -289.951)" fill="#29abe2"/>
      <g id="Group_155" data-name="Group 155" transform="translate(10.611 9.168)">
        <path id="Path_1362" data-name="Path 1362" d="M145.49,340.889v-8.473h2.523v8.473Zm0,5.027v-2.843h2.523v2.843Z" transform="translate(-145.49 -332.416)" fill="#fff"/>
      </g>
    </g>
  </g>
</svg>
