<svg id="Component_37_1" data-name="Component 37 – 1" xmlns="http://www.w3.org/2000/svg" width="48" height="48" viewBox="0 0 48 48">
  <g id="Rectangle_12" data-name="Rectangle 12" fill="none" stroke="#bbc5d5" stroke-width="1">
    <rect width="48" height="48" rx="5" stroke="none"/>
    <rect x="0.5" y="0.5" width="47" height="47" rx="4.5" fill="none"/>
  </g>
  <path id="diversity_2_FILL0_wght400_GRAD0_opsz48" d="M8.2,21.826a3.253,3.253,0,0,1-2.039-.682,3.613,3.613,0,0,1-1.247-1.76,2.946,2.946,0,0,1-.935.97,2.425,2.425,0,0,1-1.319.347,2.46,2.46,0,0,1-1.871-.79A2.635,2.635,0,0,1,.05,18.043a2.415,2.415,0,0,1,.731-1.856,2.706,2.706,0,0,1,1.859-.706,3.485,3.485,0,0,1-.672-1.113,3.6,3.6,0,0,1-.24-1.281,3.281,3.281,0,0,1,.468-1.7,3.454,3.454,0,0,1,1.331-1.269q.12.311.3.67a4.421,4.421,0,0,0,.372.623,2.383,2.383,0,0,0-.755.766,1.819,1.819,0,0,0-.276.958,1.676,1.676,0,0,0,1.163,1.808,20.773,20.773,0,0,0,2.242.587l.264.455q-.288.838-.468,1.377a3.157,3.157,0,0,0-.18.994,2.089,2.089,0,0,0,2.039,2.035,1.959,1.959,0,0,0,1.619-.826A6.923,6.923,0,0,0,10.878,17.6a15.741,15.741,0,0,0,.612-2.3q.216-1.161.36-1.808l1.391.383q-.216,1.03-.5,2.395a13.314,13.314,0,0,1-.827,2.6,6.634,6.634,0,0,1-1.415,2.1A3.124,3.124,0,0,1,8.2,21.826ZM2.688,19.264a1.2,1.2,0,1,0,0-2.395,1.2,1.2,0,1,0,0,2.395Zm7.195-4.55Q8.8,13.756,7.917,12.93a15.532,15.532,0,0,1-1.523-1.616A7.364,7.364,0,0,1,5.41,9.758a3.894,3.894,0,0,1-.348-1.628A3.437,3.437,0,0,1,8.516,4.681q.216,0,.408.012a2.129,2.129,0,0,1,.384.06A4.756,4.756,0,0,1,9,4.059a1.805,1.805,0,0,1-.1-.575,2.54,2.54,0,0,1,.767-1.868,2.667,2.667,0,0,1,3.741,0,2.54,2.54,0,0,1,.767,1.868,2.088,2.088,0,0,1-.084.563,3.1,3.1,0,0,1-.324.706,2.129,2.129,0,0,1,.384-.06q.192-.012.408-.012a3.288,3.288,0,0,1,2.314.874,3.362,3.362,0,0,1,1.091,2.167,7.05,7.05,0,0,0-.719-.012,6.552,6.552,0,0,0-.719.06,1.966,1.966,0,0,0-.648-1.185,1.918,1.918,0,0,0-1.319-.467,1.951,1.951,0,0,0-1.4.491q-.516.491-1.379,1.5h-.5a16.721,16.721,0,0,0-1.4-1.521,1.941,1.941,0,0,0-1.355-.467A1.966,1.966,0,0,0,6.5,8.129,2.529,2.529,0,0,0,6.813,9.3,7.165,7.165,0,0,0,7.7,10.584,16.311,16.311,0,0,0,9.092,12.02q.815.754,1.823,1.664ZM11.538,4.681a1.187,1.187,0,0,0,1.2-1.2,1.2,1.2,0,1,0-2.4,0,1.187,1.187,0,0,0,1.2,1.2Zm3.31,17.169a3.356,3.356,0,0,1-1.043-.168,3.769,3.769,0,0,1-1-.5q.192-.287.384-.647a6.059,6.059,0,0,0,.312-.67,2.608,2.608,0,0,0,.684.4,1.983,1.983,0,0,0,.708.132,1.906,1.906,0,0,0,1.427-.611,1.99,1.99,0,0,0,.588-1.425,3.038,3.038,0,0,0-.192-1.018q-.192-.539-.456-1.353l.264-.455a16.614,16.614,0,0,0,2.254-.563,1.676,1.676,0,0,0,1.151-1.808,1.759,1.759,0,0,0-.767-1.568,2.99,2.99,0,0,0-1.7-.515,9.115,9.115,0,0,0-2.386.383q-1.379.383-3.2.982l-.36-1.389q1.823-.6,3.286-1.006a10.013,10.013,0,0,1,2.662-.407,4.317,4.317,0,0,1,2.722.922,3.074,3.074,0,0,1,1.187,2.574A3.6,3.6,0,0,1,20.46,15.5a2.692,2.692,0,0,1,1.847.718,2.4,2.4,0,0,1,.743,1.844,2.635,2.635,0,0,1-.743,1.868,2.46,2.46,0,0,1-1.871.79,2.5,2.5,0,0,1-1.319-.347,2.662,2.662,0,0,1-.935-.97,3.764,3.764,0,0,1-1.271,1.76A3.288,3.288,0,0,1,14.848,21.85Zm5.588-2.562a1.131,1.131,0,0,0,.827-.347,1.155,1.155,0,0,0,.348-.85,1.187,1.187,0,0,0-.36-.85,1.134,1.134,0,0,0-.839-.371,1.229,1.229,0,0,0-1.2,1.2,1.271,1.271,0,0,0,1.223,1.221ZM2.688,18.067Zm8.85-14.583Zm8.874,14.583Z" transform="translate(11.95 12.15)" fill="#fbb900"/>
</svg>
