<svg id="Component_69_1" data-name="Component 69 – 1" xmlns="http://www.w3.org/2000/svg" width="136" height="200" viewBox="0 0 136 200">
  <g id="Rectangle" fill="none" stroke="#e9ebef" stroke-miterlimit="10" stroke-width="4">
    <rect width="136" height="200" rx="8" stroke="none"/>
    <rect x="2" y="2" width="132" height="196" rx="6" fill="none"/>
  </g>
  <text id="Total_Bookings" data-name="Total Bookings" transform="translate(22 167.505)" fill="#bbc5d5" font-size="10" font-family="Lato-Black, Lato" font-weight="800"><tspan x="0" y="0">GENERAL REPORTS</tspan></text>
  <g id="report-svgrepo-com" transform="translate(33.314 37.262)">
    <g id="Group_143" data-name="Group 143" transform="translate(1.812 1.812)">
      <path id="Path_1321" data-name="Path 1321" d="M124.484,44.938v7.309H100.718V44.938H81.813v82.406h61.576V44.938Z" transform="translate(-81.813 -38.177)" fill="#d7e1f2"/>
      <rect id="Rectangle_300" data-name="Rectangle 300" width="23.765" height="14.069" transform="translate(18.905)" fill="#fbb900"/>
    </g>
    <path id="Path_1322" data-name="Path 1322" d="M135.7,6.761H118.608V1.812A1.813,1.813,0,0,0,116.8,0H93.031a1.812,1.812,0,0,0-1.812,1.812V6.761H74.125a1.812,1.812,0,0,0-1.812,1.812V90.979a1.812,1.812,0,0,0,1.812,1.812H135.7a1.812,1.812,0,0,0,1.812-1.812V8.573A1.812,1.812,0,0,0,135.7,6.761Zm-20.718,7.308H94.843V3.625h20.14Zm18.905,75.1H75.938V10.385H91.218v5.5a1.812,1.812,0,0,0,1.812,1.812H116.8a1.813,1.813,0,0,0,1.812-1.812v-5.5h15.281Z" transform="translate(-72.313)" fill="#354052"/>
    <path id="Path_1323" data-name="Path 1323" d="M151.886,126.221H123.93a1.812,1.812,0,1,1,0-3.625h27.956a1.812,1.812,0,1,1,0,3.625Z" transform="translate(-112.617 -99.208)" fill="#354052"/>
    <path id="Path_1324" data-name="Path 1324" d="M167.052,175.068H123.93a1.812,1.812,0,1,1,0-3.625h43.122a1.812,1.812,0,0,1,0,3.625Z" transform="translate(-112.617 -138.737)" fill="#354052"/>
    <path id="Path_1325" data-name="Path 1325" d="M167.052,223.916H123.93a1.812,1.812,0,1,1,0-3.625h43.122a1.812,1.812,0,0,1,0,3.625Z" transform="translate(-112.617 -178.266)" fill="#354052"/>
    <path id="Path_1326" data-name="Path 1326" d="M167.052,269.889H123.93a1.812,1.812,0,1,1,0-3.625h43.122a1.812,1.812,0,0,1,0,3.625Z" transform="translate(-112.617 -215.469)" fill="#354052"/>
    <path id="Path_1327" data-name="Path 1327" d="M324.391,126.221h-6.03a1.812,1.812,0,0,1,0-3.625h6.03a1.812,1.812,0,0,1,0,3.625Z" transform="translate(-269.956 -99.208)" fill="#354052"/>
    <path id="Path_1328" data-name="Path 1328" d="M277.58,327.448a9.855,9.855,0,0,0-13.53-.289L270.961,334Z" transform="translate(-227.472 -262.685)" fill="#d7e1f2"/>
    <g id="Group_144" data-name="Group 144" transform="translate(22.408 62.661)">
      <path id="Path_1329" data-name="Path 1329" d="M202.447,337.963a9.615,9.615,0,0,0-.307,13.985l7.218-7.144Z" transform="translate(-197.463 -336.151)" fill="#fbb900"/>
      <path id="Path_1330" data-name="Path 1330" d="M194.453,346.072a1.807,1.807,0,0,1-1.275-.524,11.427,11.427,0,0,1,.363-16.614,1.812,1.812,0,0,1,2.493.054l6.911,6.84a1.812,1.812,0,0,1,0,2.576l-7.218,7.144A1.806,1.806,0,0,1,194.453,346.072Zm.386-13.168a7.792,7.792,0,0,0-.242,8.663l4.5-4.451Z" transform="translate(-189.775 -328.463)" fill="#7f8fa4"/>
    </g>
    <path id="Path_1331" data-name="Path 1331" d="M262.443,353.174a9.805,9.805,0,0,0,16.7-6.848,9.6,9.6,0,0,0-2.866-6.848Z" transform="translate(-226.172 -274.716)" fill="#7f8fa4"/>
    <path id="Path_1332" data-name="Path 1332" d="M269.867,318.472h0a11.667,11.667,0,0,0-16.023-.343,1.812,1.812,0,0,0-.056,2.63l5.61,5.552-5.916,5.856a1.812,1.812,0,0,0,0,2.576,11.618,11.618,0,0,0,19.79-8.136A11.372,11.372,0,0,0,269.867,318.472Zm-12,1.221a8.073,8.073,0,0,1,8,.216l-3.892,3.853Zm3.811,14.786a7.993,7.993,0,0,1-4.192-1.173l7.175-7.1,3.791-3.752a7.747,7.747,0,0,1,1.2,4.155A7.931,7.931,0,0,1,261.673,334.479Z" transform="translate(-218.484 -254.997)" fill="#344248"/>
    <path id="Path_1333" data-name="Path 1333" d="M214.124,37.825h-6.162a1.812,1.812,0,0,1,0-3.625h6.162a1.812,1.812,0,1,1,0,3.625Z" transform="translate(-180.618 -27.676)" fill="#344248"/>
  </g>
</svg>
