<svg id="Component_67_1" data-name="Component 67 – 1" xmlns="http://www.w3.org/2000/svg" width="136" height="200" viewBox="0 0 136 200">
  <g id="Rectangle" fill="none" stroke="#e9ebef" stroke-miterlimit="10" stroke-width="4">
    <rect width="136" height="200" rx="8" stroke="none"/>
    <rect x="2" y="2" width="132" height="196" rx="6" fill="none"/>
  </g>
  <text id="Total_Bookings" data-name="Total Bookings" transform="translate(24 167.505)" fill="#bbc5d5" font-size="10" font-family="Lato-Black, Lato" font-weight="800"><tspan x="0" y="0">CHEQUE ACTIVITY</tspan></text>
  <g id="check-svgrepo-com-2" transform="translate(16.75 12.848)">
    <g id="XMLID_39_" transform="translate(0.25 7.59)">
      <g id="Group_159" data-name="Group 159">
        <path id="Path_1372" data-name="Path 1372" d="M225.053,139.88v39.991L222.016,183l-3.036-3.129V139.88Z" transform="translate(-144.102 -94.593)" fill="#fbb900"/>
        <rect id="Rectangle_312" data-name="Rectangle 312" width="7.192" height="40.686" transform="translate(87.715 29.656)" fill="#bbc5d5"/>
        <path id="Path_1373" data-name="Path 1373" d="M81.362,94.22v40.686H20.02V94.22ZM67.474,113.168a3.387,3.387,0,0,0-3.386-3.386H30.595a3.384,3.384,0,1,0,0,6.768H64.088A3.386,3.386,0,0,0,67.474,113.168Zm0,11.163a3.384,3.384,0,0,0-3.386-3.382H30.595a3.382,3.382,0,1,0,0,6.764H64.088A3.384,3.384,0,0,0,67.474,124.331Z" transform="translate(-13.252 -64.564)" fill="#bbc5d5"/>
        <path id="Path_1374" data-name="Path 1374" d="M225.053,30.4V59.111H218.98V30.4a3.036,3.036,0,0,1,6.073,0Z" transform="translate(-144.102 -20.592)" fill="#fff3c7"/>
        <path id="Path_1375" data-name="Path 1375" d="M101.922,33.86V81.314A3.381,3.381,0,0,1,98.54,84.7H87.965v9.544A3.378,3.378,0,0,1,87.01,96.6l-6.419,6.614a3.386,3.386,0,0,1-4.858,0L69.315,96.6a3.378,3.378,0,0,1-.955-2.355V84.7H3.636A3.384,3.384,0,0,1,.25,81.314V33.86a3.386,3.386,0,0,1,3.386-3.382H68.36V17.394a9.8,9.8,0,1,1,19.605,0V30.478H98.54A3.383,3.383,0,0,1,101.922,33.86ZM95.158,77.932V37.246H87.965V77.932ZM81.2,92.868V52.877H75.128V92.868L78.164,96Zm0-46.759V17.394a3.036,3.036,0,1,0-6.073,0V46.109ZM68.36,77.932V37.246H7.018V77.932Z" transform="translate(-0.25 -7.59)" fill="#354052"/>
        <path id="Path_1376" data-name="Path 1376" d="M77.9,139.68a3.384,3.384,0,1,1,0,6.768H44.406a3.384,3.384,0,1,1,0-6.768Z" transform="translate(-27.063 -94.462)" fill="#344248"/>
        <path id="Path_1377" data-name="Path 1377" d="M77.9,172.3a3.382,3.382,0,1,1,0,6.764H44.406a3.382,3.382,0,1,1,0-6.764Z" transform="translate(-27.063 -115.915)" fill="#344248"/>
      </g>
    </g>
  </g>
</svg>
