<svg id="Component_51_1" data-name="Component 51 – 1" xmlns="http://www.w3.org/2000/svg" width="22" height="22" viewBox="0 0 22 22">
  <g id="Rectangle_26" data-name="Rectangle 26" fill="#fff" stroke="#7f8fa4" stroke-width="1">
    <rect width="22" height="22" rx="4" stroke="none"/>
    <rect x="0.5" y="0.5" width="21" height="21" rx="3.5" fill="none"/>
  </g>
  <g id="Group_82" data-name="Group 82" transform="translate(3.035 1.918)">
    <g id="Group_79" data-name="Group 79">
      <path id="Path_68" data-name="Path 68" d="M.154,2.687c.391.635-.6,1.284.116,1.223S3.117.8,3.117,0A5.279,5.279,0,0,1,.154,2.687Z" transform="translate(5.967 3.422) rotate(9)" fill="#fbb900"/>
      <path id="Path_74" data-name="Path 74" d="M.154,1.227C.544.592-.451-.057.27,0s2.847,3.114,2.847,3.91A5.279,5.279,0,0,0,.154,1.227Z" transform="translate(13.665 7.348) rotate(173)" fill="#fbb900"/>
      <path id="Path_70" data-name="Path 70" d="M2.036.039l-.451.1C.715.336,0,.87,0,1.326s.715.99,1.585,1.186l.451.1A1.249,1.249,0,0,0,3.624,1.342V1.306A1.247,1.247,0,0,0,2.036.039Z" transform="translate(9.816 2.218) rotate(-13)" fill="#fbb900"/>
      <path id="Path_73" data-name="Path 73" d="M2.036.039l-.451.1C.715.336,0,.87,0,1.326s.715.99,1.585,1.186l.451.1A1.249,1.249,0,0,0,3.624,1.342V1.306A1.247,1.247,0,0,0,2.036.039Z" transform="matrix(-0.94, -0.342, 0.342, -0.94, 8.456, 4.801)" fill="#fbb900"/>
      <path id="Path_72" data-name="Path 72" d="M15.584,3.188a2.208,2.208,0,0,0,.054-.391l0-.277A3.345,3.345,0,0,0,15.194.282a.973.973,0,0,0-.946-.251l-.5.113a5.939,5.939,0,0,0-2.561,1.806.782.782,0,0,0-.266-.048h-.32a.792.792,0,0,0-.268.048A5.924,5.924,0,0,0,7.779.142L7.286.03a.973.973,0,0,0-.947.252A3.363,3.363,0,0,0,5.893,2.52l0,.314a2.113,2.113,0,0,0,.04.284H2.862A1.918,1.918,0,0,0,.97,5.046V7.672h.445v8.6A1.8,1.8,0,0,0,3.2,18.082H14.775a1.8,1.8,0,0,0,1.781-1.814v-8.6H17V5.046A1.925,1.925,0,0,0,15.584,3.188ZM12.548,6.765v6.972l-1.781-2.721L8.986,13.737V6.624a8.5,8.5,0,0,0,1.429-2.25.749.749,0,0,0,.191.024h.32a.766.766,0,0,0,.19-.024,8.5,8.5,0,0,0,1.43,2.245l0,.146ZM15.192,2.8v.037a1.373,1.373,0,0,1-1.738,1.416l-.494-.112a3.332,3.332,0,0,1-1.091-.462,5.988,5.988,0,0,0,3.138,1.605c-.471.78.555,2.433-.207,2.453V7.75l0-.014c-.02,0-.028.013-.053.011-.783-.066-2.913-2.179-3.416-4.14a.491.491,0,0,1-.4.336h-.319a.489.489,0,0,1-.4-.336C9.7,5.569,7.57,7.682,6.786,7.747c-.891.075.223-1.662-.261-2.465A5.985,5.985,0,0,0,9.663,3.677a3.351,3.351,0,0,1-1.091.462l-.493.112A1.373,1.373,0,0,1,6.341,2.835V2.8c0-1-.109-2.543.847-2.323l.494.112A5.416,5.416,0,0,1,10.242,2.6a.447.447,0,0,1,.362-.242h.32a.445.445,0,0,1,.363.243A5.43,5.43,0,0,1,13.849.588l.494-.112C15.3.255,15.192,1.8,15.192,2.8Z" transform="translate(-0.97 0)" fill="#7f8fa4"/>
    </g>
    <path id="Path_75" data-name="Path 75" d="M2434.529,4321.106l-1.838,2.651v6.908l1.838-2.689,1.907,2.807-.172-7.026Z" transform="translate(-2424.809 -4316.999)" fill="none" stroke="#fbb900" stroke-width="0.2"/>
  </g>
</svg>
