<svg xmlns="http://www.w3.org/2000/svg" width="86" height="68" viewBox="0 0 86 68">
  <g id="Group_74" data-name="Group 74" transform="translate(-898 -627)">
    <g id="Component_48_1" data-name="Component 48 – 1" transform="translate(898 627)">
      <g id="Group_68" data-name="Group 68" transform="translate(-468 -627)">
        <g id="Rectangle_24" data-name="Rectangle 24" transform="translate(486 627)" fill="none" stroke="#bbc5d5" stroke-width="2">
          <rect width="50" height="50" rx="4" stroke="none"/>
          <rect x="1" y="1" width="48" height="48" rx="3" fill="none"/>
        </g>
      </g>
      <g id="Group_69" data-name="Group 69" transform="translate(-486 -627)" opacity="0">
        <rect id="Rectangle_25" data-name="Rectangle 25" width="86" height="18" rx="2" transform="translate(486 677)" fill="#bbc5d5"/>
        <text id="RyPam_Banks_" data-name="RyPam (Banks)" transform="translate(488 690)" fill="#354052" font-size="12" font-family="Raleway"><tspan x="0" y="0">RyPam (Banks)</tspan></text>
      </g>
    </g>
    <g id="MDI_thought-bubble" data-name="MDI / thought-bubble" transform="translate(923 634)" opacity="0.997">
      <rect id="Boundary" width="36" height="36" fill="#fbb900" opacity="0"/>
      <path id="Path_thought-bubble" data-name="Path / thought-bubble" d="M4.4,29.105A2.448,2.448,0,0,1,4.4,34a2.448,2.448,0,0,1,0-4.895m8-4.895a4.08,4.08,0,1,1-4,4.079,4.04,4.04,0,0,1,4-4.079M22,22.579a6.224,6.224,0,0,1-4.8-2.2,6.224,6.224,0,0,1-4.8,2.2A6.429,6.429,0,0,1,6.112,17.26,6.556,6.556,0,0,1,2,11.158,6.464,6.464,0,0,1,8.4,4.632a8.046,8.046,0,0,1,1.232.114A6.421,6.421,0,0,1,14,3a6.225,6.225,0,0,1,4.8,2.2A6.224,6.224,0,0,1,23.6,3a6.429,6.429,0,0,1,6.288,5.319A6.556,6.556,0,0,1,34,14.421a6.464,6.464,0,0,1-6.4,6.526l-1.232-.114A6.421,6.421,0,0,1,22,22.579Z" transform="translate(0)" fill="#fbb900"/>
    </g>
  </g>
</svg>
