<svg xmlns="http://www.w3.org/2000/svg" width="86" height="68" viewBox="0 0 86 68">
  <g id="Group_77" data-name="Group 77" transform="translate(-1156 -627)">
    <g id="Component_48_1" data-name="Component 48 – 1" transform="translate(1156 627)">
      <g id="Group_68" data-name="Group 68" transform="translate(-468 -627)">
        <g id="Rectangle_24" data-name="Rectangle 24" transform="translate(486 627)" fill="none" stroke="#bbc5d5" stroke-width="2">
          <rect width="50" height="50" rx="4" stroke="none"/>
          <rect x="1" y="1" width="48" height="48" rx="3" fill="none"/>
        </g>
      </g>
      <g id="Group_69" data-name="Group 69" transform="translate(-486 -627)" opacity="0">
        <rect id="Rectangle_25" data-name="Rectangle 25" width="86" height="18" rx="2" transform="translate(486 677)" fill="#bbc5d5"/>
        <text id="RyPam_Banks_" data-name="RyPam (Banks)" transform="translate(488 690)" fill="#354052" font-size="12" font-family="Raleway"><tspan x="0" y="0">RyPam (Banks)</tspan></text>
      </g>
    </g>
    <path id="Icon_metro-calculator2" data-name="Icon metro-calculator2" d="M7.129,22.571H10.4v-3.75H7.129Zm1.091-2.5H9.311v1.25H8.22Zm3.273,2.5h3.273v-3.75H11.492Zm1.091-2.5h1.091v1.25H12.583Zm-1.091,7.5h3.273v-3.75H11.492Zm1.091-2.5h1.091v1.25H12.583Zm-5.455,2.5H10.4v-3.75H7.129Zm1.091-2.5H9.311v1.25H8.22Zm7.636-2.5h3.273v-3.75H15.856Zm1.091-2.5h1.091v1.25H16.947Zm-3.273-5h1.091v-1.25H13.674Zm-2.182,0h1.091v-1.25H11.492Zm-4.364,2.5H24.583V6.321H7.129Zm1.091-10H23.492v8.75H8.22Zm16.364-5H7.129a3.536,3.536,0,0,0-3.273,3.75v22.5a3.536,3.536,0,0,0,3.273,3.75H24.583a3.536,3.536,0,0,0,3.273-3.75V6.321a3.536,3.536,0,0,0-3.273-3.75Zm1.091,26.25a1.178,1.178,0,0,1-1.091,1.25H7.129a1.178,1.178,0,0,1-1.091-1.25V6.321a1.178,1.178,0,0,1,1.091-1.25H24.583a1.178,1.178,0,0,1,1.091,1.25v22.5Zm-9.818-1.25h3.273v-3.75H15.856Zm1.091-2.5h1.091v1.25H16.947v-1.25Zm3.273,2.5h4.364v-8.75H20.22Zm1.091-7.5h2.182v6.25H21.311v-6.25Zm-12-5H10.4v-1.25H9.311Z" transform="translate(1183.144 634.429)" fill="#fbb900"/>
  </g>
</svg>
