<svg xmlns="http://www.w3.org/2000/svg" width="86" height="68" viewBox="0 0 86 68">
  <g id="Group_72" data-name="Group 72" transform="translate(-726 -627)">
    <g id="Component_48_1" data-name="Component 48 – 1" transform="translate(726 627)">
      <g id="Group_68" data-name="Group 68" transform="translate(-468 -627)">
        <g id="Rectangle_24" data-name="Rectangle 24" transform="translate(486 627)" fill="none" stroke="#bbc5d5" stroke-width="2">
          <rect width="50" height="50" rx="4" stroke="none"/>
          <rect x="1" y="1" width="48" height="48" rx="3" fill="none"/>
        </g>
      </g>
      <g id="Group_69" data-name="Group 69" transform="translate(-486 -627)" opacity="0">
        <rect id="Rectangle_25" data-name="Rectangle 25" width="86" height="18" rx="2" transform="translate(486 677)" fill="#bbc5d5"/>
        <text id="RyPam_Banks_" data-name="RyPam (Banks)" transform="translate(488 690)" fill="#354052" font-size="12" font-family="Raleway"><tspan x="0" y="0">RyPam (Banks)</tspan></text>
      </g>
    </g>
    <g id="MDI_information-variant" data-name="MDI / information-variant" transform="translate(749 632)">
      <rect id="Boundary" width="40" height="40" fill="#fbb900" opacity="0"/>
      <path id="Path_information-variant" data-name="Path / information-variant" d="M13.5,4C12.672,4,12,5.343,12,7s.672,3,1.5,3S15,8.656,15,7s-.672-3-1.5-3m-.36,9.539c-1.19.2-4.44,5.379-4.44,5.379-.2.3-.14.28.02.84.16.54.14.58.33.32s.53-.68,1.08-1.36c2.12-2.72.34,3.56-.57,14.138-.36,5.239,2,2.54,2.61,1.74.6-.78,2.21-3,2.37-3.22.22-.3.06-.54-.11-1.04-.12-.34-.24-.1-.24-.1-.65.86-1.84,2.66-2,1.52-.19-1.14,1.03-8.959,1.7-14.338C14,16.138,14.3,13.339,13.14,13.539Z" transform="translate(8.621)" fill="#fbb900"/>
    </g>
  </g>
</svg>
