<svg xmlns="http://www.w3.org/2000/svg" width="86" height="68" viewBox="0 0 86 68">
  <g id="Group_73" data-name="Group 73" transform="translate(-812 -627)">
    <g id="Component_48_1" data-name="Component 48 – 1" transform="translate(812 627)">
      <g id="Group_68" data-name="Group 68" transform="translate(-468 -627)">
        <g id="Rectangle_24" data-name="Rectangle 24" transform="translate(486 627)" fill="none" stroke="#bbc5d5" stroke-width="2">
          <rect width="50" height="50" rx="4" stroke="none"/>
          <rect x="1" y="1" width="48" height="48" rx="3" fill="none"/>
        </g>
      </g>
      <g id="Group_69" data-name="Group 69" transform="translate(-486 -627)" opacity="0">
        <rect id="Rectangle_25" data-name="Rectangle 25" width="86" height="18" rx="2" transform="translate(486 677)" fill="#bbc5d5"/>
        <text id="RyPam_Banks_" data-name="RyPam (Banks)" transform="translate(488 690)" fill="#354052" font-size="12" font-family="Raleway"><tspan x="0" y="0">RyPam (Banks)</tspan></text>
      </g>
    </g>
    <g id="MDI_web-box" data-name="MDI / web-box" transform="translate(835 632)" opacity="0.995">
      <rect id="Boundary" width="40" height="40" fill="#fbb900" opacity="0"/>
      <path id="Path_web-box" data-name="Path / web-box" d="M14.239,22.644H9.762a10.389,10.389,0,0,1,0-5.289h4.477A21.835,21.835,0,0,0,14.05,20a21.836,21.836,0,0,0,.189,2.644m-3.381-7.933h3.853a22.78,22.78,0,0,1,1.851-4.7,10.483,10.483,0,0,0-5.7,4.7m18.284,0a10.559,10.559,0,0,0-5.723-4.7,20.683,20.683,0,0,1,1.832,4.7M20,30.521a17.944,17.944,0,0,0,2.531-5.232H17.469A17.944,17.944,0,0,0,20,30.521M20,9.46a18,18,0,0,0-2.531,5.251h5.062A18,18,0,0,0,20,9.46M10.858,25.289a10.6,10.6,0,0,0,5.7,4.7,22.78,22.78,0,0,1-1.851-4.7M37,6.778V33.222A3.778,3.778,0,0,1,33.222,37H6.778A3.778,3.778,0,0,1,3,33.222V6.778A3.778,3.778,0,0,1,6.778,3H33.222A3.778,3.778,0,0,1,37,6.778M33.222,20A13.222,13.222,0,1,0,20,33.222,13.222,13.222,0,0,0,33.222,20M25.95,20a21.835,21.835,0,0,1-.189,2.644h4.477a10.389,10.389,0,0,0,0-5.289H25.761A21.835,21.835,0,0,1,25.95,20m-2.531,9.992a10.616,10.616,0,0,0,5.723-4.7H25.251a20.683,20.683,0,0,1-1.832,4.7M16.9,17.356a16.641,16.641,0,0,0,0,5.289h6.2A19.457,19.457,0,0,0,23.306,20a19.287,19.287,0,0,0-.208-2.644Z" transform="translate(0 0)" fill="#fbb900"/>
    </g>
  </g>
</svg>
