<svg xmlns="http://www.w3.org/2000/svg" width="86" height="68" viewBox="0 0 86 68">
  <g id="Group_189" data-name="Group 189" transform="translate(-1215 -726)">
    <g id="Component_48_1" data-name="Component 48 – 1" transform="translate(1215 726)">
      <g id="Group_68" data-name="Group 68" transform="translate(-468 -627)">
        <g id="Rectangle_24" data-name="Rectangle 24" transform="translate(486 627)" fill="none" stroke="#bbc5d5" stroke-width="2">
          <rect width="50" height="50" rx="4" stroke="none"/>
          <rect x="1" y="1" width="48" height="48" rx="3" fill="none"/>
        </g>
      </g>
      <g id="Group_69" data-name="Group 69" transform="translate(-486 -627)" opacity="0">
        <rect id="Rectangle_25" data-name="Rectangle 25" width="86" height="18" rx="2" transform="translate(486 677)" fill="#bbc5d5"/>
        <text id="RyPam_Banks_" data-name="RyPam (Banks)" transform="translate(488 690)" fill="#354052" font-size="12" font-family="Raleway"><tspan x="0" y="0">RyPam (Banks)</tspan></text>
      </g>
    </g>
    <path id="Icon_metro-flow-tree" data-name="Icon metro-flow-tree" d="M38.666,27.436V23.356c0-3.393-3.167-6.144-7.074-6.144H27.549a2.855,2.855,0,0,1-3.032-2.633V10.5a4.219,4.219,0,0,0,2.83-3.82c0-2.328-2.171-4.213-4.851-4.213s-4.851,1.885-4.851,4.213a4.223,4.223,0,0,0,2.83,3.82V14.58a2.855,2.855,0,0,1-3.032,2.633H13.4c-3.907,0-7.074,2.751-7.074,6.144v4.079a4.22,4.22,0,0,0-2.83,3.82c0,2.328,2.171,4.213,4.851,4.213S13.2,33.581,13.2,31.255a4.223,4.223,0,0,0-2.83-3.82V23.356A2.855,2.855,0,0,1,13.4,20.723h4.043a7.884,7.884,0,0,0,3.032-.614v7.327a4.22,4.22,0,0,0-2.83,3.82c0,2.328,2.171,4.213,4.851,4.213s4.851-1.887,4.851-4.213a4.223,4.223,0,0,0-2.83-3.82V20.109a7.884,7.884,0,0,0,3.032.614h4.043a2.855,2.855,0,0,1,3.032,2.633v4.079a4.219,4.219,0,0,0-2.83,3.82c0,2.328,2.171,4.213,4.851,4.213S41.5,33.581,41.5,31.255a4.22,4.22,0,0,0-2.83-3.82ZM22.5,4.25a2.633,2.633,0,0,1,2.8,2.431,2.635,2.635,0,0,1-2.8,2.431,2.634,2.634,0,0,1-2.8-2.431A2.632,2.632,0,0,1,22.5,4.25ZM8.347,33.686a2.635,2.635,0,0,1-2.8-2.431,2.632,2.632,0,0,1,2.8-2.431,2.633,2.633,0,0,1,2.8,2.431,2.635,2.635,0,0,1-2.8,2.431Zm14.149,0a2.635,2.635,0,0,1-2.8-2.431,2.632,2.632,0,0,1,2.8-2.431,2.633,2.633,0,0,1,2.8,2.431,2.635,2.635,0,0,1-2.8,2.431Zm14.149,0a2.635,2.635,0,0,1-2.8-2.431,2.826,2.826,0,0,1,5.6,0,2.635,2.635,0,0,1-2.8,2.431Z" transform="translate(1235.982 730.532)" fill="#fbb900"/>
  </g>
</svg>
