<svg xmlns="http://www.w3.org/2000/svg" width="86" height="68" viewBox="0 0 86 68">
  <g id="Group_76" data-name="Group 76" transform="translate(-1070 -627)">
    <g id="Component_48_1" data-name="Component 48 – 1" transform="translate(1070 627)">
      <g id="Group_68" data-name="Group 68" transform="translate(-468 -627)">
        <g id="Rectangle_24" data-name="Rectangle 24" transform="translate(486 627)" fill="none" stroke="#bbc5d5" stroke-width="2">
          <rect width="50" height="50" rx="4" stroke="none"/>
          <rect x="1" y="1" width="48" height="48" rx="3" fill="none"/>
        </g>
      </g>
      <g id="Group_69" data-name="Group 69" transform="translate(-486 -627)" opacity="0">
        <rect id="Rectangle_25" data-name="Rectangle 25" width="86" height="18" rx="2" transform="translate(486 677)" fill="#bbc5d5"/>
        <text id="RyPam_Banks_" data-name="RyPam (Banks)" transform="translate(488 690)" fill="#354052" font-size="12" font-family="Raleway"><tspan x="0" y="0">RyPam (Banks)</tspan></text>
      </g>
    </g>
    <path id="Icon_awesome-network-wired" data-name="Icon awesome-network-wired" d="M36,18.563V17.438a1.031,1.031,0,0,0-.9-1.125H19.35V13.5H23.4a2.063,2.063,0,0,0,1.8-2.25v-9A2.063,2.063,0,0,0,23.4,0H12.6a2.063,2.063,0,0,0-1.8,2.25v9a2.063,2.063,0,0,0,1.8,2.25h4.05v2.813H.9A1.031,1.031,0,0,0,0,17.438v1.125a1.031,1.031,0,0,0,.9,1.125H6.75V22.5H3.6a2.063,2.063,0,0,0-1.8,2.25v9A2.063,2.063,0,0,0,3.6,36h9a2.063,2.063,0,0,0,1.8-2.25v-9a2.063,2.063,0,0,0-1.8-2.25H9.45V19.688h17.1V22.5H23.4a2.063,2.063,0,0,0-1.8,2.25v9A2.063,2.063,0,0,0,23.4,36h9a2.063,2.063,0,0,0,1.8-2.25v-9a2.063,2.063,0,0,0-1.8-2.25H29.25V19.688H35.1A1.031,1.031,0,0,0,36,18.563ZM14.4,9V4.5h7.2V9ZM10.8,31.5H5.4V27h5.4Zm19.8,0H25.2V27h5.4Z" transform="translate(1095 634)" fill="#fbb900"/>
  </g>
</svg>
