<svg xmlns="http://www.w3.org/2000/svg" width="136" height="200" viewBox="0 0 136 200">
  <g id="Group_191" data-name="Group 191" transform="translate(-648 -189)">
    <g id="Rectangle" transform="translate(648 189)">
      <g id="Rectangle-2" data-name="Rectangle" fill="none" stroke="#e9ebef" stroke-miterlimit="10" stroke-width="3">
        <rect width="136" height="200" rx="8" stroke="none"/>
        <rect x="1.5" y="1.5" width="133" height="197" rx="6.5" fill="none"/>
      </g>
    </g>
    <text id="Total_Bookings" data-name="Total Bookings" transform="translate(683.619 356.505)" fill="#bbc5d5" font-size="10" font-family="Lato-Black, Lato" font-weight="800"><tspan x="0" y="0">IT OPERATIONS</tspan></text>
    <g id="laptop-electronics-svgrepo-com" transform="translate(668 207.603)">
      <path id="Path_1419" data-name="Path 1419" d="M123.93,115.439a26.646,26.646,0,0,1-5.383,2.38v17.809a2.7,2.7,0,0,1-2.7,2.7H61.286a2.7,2.7,0,0,1-2.7-2.7V96a2.7,2.7,0,0,1,2.7-2.7H84.238c0-.224-.032-.463-.032-.687a28.528,28.528,0,0,1,.431-4.7H53.2V143.71h70.71V115.439Z" transform="translate(-40.059 -66.197)" fill="#fff"/>
      <path id="Path_1420" data-name="Path 1420" d="M101.009,148.98H96.776v16.739h49.163V151.711c-.815.08-1.661.128-2.524.128a26.444,26.444,0,0,1-25.7-20.349H96.776v3.5h9.6a2.7,2.7,0,1,1,0,5.4h-9.6v3.227h4.217a2.683,2.683,0,1,1,.016,5.367Z" transform="translate(-72.865 -99.003)" fill="#bbc5d5"/>
      <g id="Group_167" data-name="Group 167" transform="translate(29.229 55.839)">
        <path id="Path_1421" data-name="Path 1421" d="M122.167,231.067,123.733,226h2.045l1.549,5.063L129.083,226h2.124l-3.067,8.8h-1.454l-1.933-6.118-1.917,6.118h-1.454L118.3,226h2.124Z" transform="translate(-118.302 -226.004)" fill="#344248"/>
        <path id="Path_1422" data-name="Path 1422" d="M174.143,231.067,175.709,226h2.045l1.549,5.063L181.059,226h2.124l-3.067,8.8h-1.454l-1.949-6.1-1.917,6.118h-1.437L170.278,226H172.4Z" transform="translate(-157.436 -226.004)" fill="#344248"/>
        <path id="Path_1423" data-name="Path 1423" d="M226.039,231.067,227.6,226h2.045l1.549,5.063L232.955,226h2.14l-3.067,8.8h-1.454l-1.933-6.118-1.917,6.118h-1.454L222.19,226h2.124Z" transform="translate(-196.522 -226.004)" fill="#344248"/>
      </g>
      <g id="Group_168" data-name="Group 168" transform="translate(5.399 5.383)">
        <path id="Path_1444" data-name="Path 1444" d="M0,0H86.219V8.7H0Z" transform="translate(0 77.514)" fill="#fbb900"/>
        <path id="Path_1424" data-name="Path 1424" d="M331.5,72.41h9.088a21.084,21.084,0,0,0-2.619-7.763,71.923,71.923,0,0,1-7.044,1.533C331.213,68.193,331.405,70.285,331.5,72.41Z" transform="translate(-254.562 -54.057)" fill="#ffc10d"/>
        <path id="Path_1425" data-name="Path 1425" d="M271.968,73.5c-1.949.176-3.881.255-5.83.255s-3.9-.1-5.83-.255a51.8,51.8,0,0,0-.559,5.574h12.746A44.367,44.367,0,0,0,271.968,73.5Z" transform="translate(-200.971 -60.725)" fill="#ffc10d"/>
        <path id="Path_1426" data-name="Path 1426" d="M340.588,117.85H331.5c-.1,2.124-.288,4.217-.575,6.245a67.59,67.59,0,0,1,7.044,1.533A21.258,21.258,0,0,0,340.588,117.85Z" transform="translate(-254.561 -94.115)" fill="#ffc10d"/>
        <path id="Path_1427" data-name="Path 1427" d="M201.244,72.361h9.088a60.856,60.856,0,0,1,.591-6.245,67.592,67.592,0,0,1-7.044-1.533A20.617,20.617,0,0,0,201.244,72.361Z" transform="translate(-156.921 -54.008)" fill="#ffc10d"/>
        <path id="Path_1428" data-name="Path 1428" d="M321.077,33.814c1.5-.255,3.019-.527,4.5-.894a21.338,21.338,0,0,0-6.293-4.217A32.423,32.423,0,0,1,321.077,33.814Z" transform="translate(-245.8 -26.994)" fill="#ffc10d"/>
        <path id="Path_1429" data-name="Path 1429" d="M232.879,28.768a20.985,20.985,0,0,0-6.293,4.2c1.485.351,3,.655,4.5.894A31.657,31.657,0,0,1,232.879,28.768Z" transform="translate(-176.002 -27.043)" fill="#ffc10d"/>
        <path id="Path_1430" data-name="Path 1430" d="M266.8,29.245a65.159,65.159,0,0,0,9.344,0c-1.406-4.776-3.354-7.459-4.664-7.459C270.134,21.786,268.186,24.485,266.8,29.245Z" transform="translate(-206.277 -21.786)" fill="#ffc10d"/>
        <path id="Path_1431" data-name="Path 1431" d="M272.066,123.424a51.787,51.787,0,0,0,.559-5.574H259.879a51.387,51.387,0,0,0,.559,5.574A67.334,67.334,0,0,1,272.066,123.424Z" transform="translate(-201.069 -94.115)" fill="#ffc10d"/>
        <path id="Path_1432" data-name="Path 1432" d="M276.011,161.428a65.163,65.163,0,0,0-9.344,0c1.406,4.776,3.354,7.443,4.664,7.443C272.656,168.871,274.605,166.2,276.011,161.428Z" transform="translate(-206.18 -126.8)" fill="#ffc10d"/>
        <path id="Path_1433" data-name="Path 1433" d="M203.863,125.629a71.914,71.914,0,0,1,7.044-1.533,56.7,56.7,0,0,1-.575-6.245h-9.088A20.973,20.973,0,0,0,203.863,125.629Z" transform="translate(-156.921 -94.115)" fill="#ffc10d"/>
        <path id="Path_1434" data-name="Path 1434" d="M321.078,164.525a31.684,31.684,0,0,1-1.789,5.1,20.714,20.714,0,0,0,6.277-4.2C324.081,165.068,322.6,164.765,321.078,164.525Z" transform="translate(-245.8 -129.258)" fill="#fbb900"/>
        <path id="Path_1435" data-name="Path 1435" d="M226.521,165.419a20.911,20.911,0,0,0,6.277,4.2,30.736,30.736,0,0,1-1.773-5.1C229.524,164.765,228.022,165.068,226.521,165.419Z" transform="translate(-175.953 -129.258)" fill="#ffc10d"/>
      </g>
      <path id="Path_1436" data-name="Path 1436" d="M94.317,77.514H89.253V45.09A26.413,26.413,0,1,0,46.16,16.34h-35.7a2.7,2.7,0,0,0-2.7,2.7V77.514H2.7a2.7,2.7,0,0,0-2.7,2.7V94.3A2.7,2.7,0,0,0,2.7,97H94.3A2.7,2.7,0,0,0,97,94.3V80.213A2.682,2.682,0,0,0,94.317,77.514ZM91.617,91.6H5.4V82.9H91.618v8.7Zm-.192-67.866H82.337a60.865,60.865,0,0,0-.591-6.245,67.59,67.59,0,0,0,7.044-1.533A20.89,20.89,0,0,1,91.426,23.735ZM28.143,44.595H23.911V41.368h9.6a2.7,2.7,0,0,0,0-5.4h-9.6v-3.5H44.866a26.444,26.444,0,0,0,25.7,20.349c.863,0,1.677-.064,2.524-.128V66.7H23.911V49.977h4.217a2.691,2.691,0,0,0,.016-5.383ZM64.209,29.117H76.955a51.392,51.392,0,0,1-.559,5.574,70.851,70.851,0,0,0-11.644,0A51.551,51.551,0,0,1,64.209,29.117ZM85.165,41.544a20.911,20.911,0,0,1-6.277,4.2,32.247,32.247,0,0,0,1.789-5.1C82.194,40.889,83.679,41.193,85.165,41.544Zm-3.4-6.181a56.687,56.687,0,0,0,.575-6.245h9.088a21.084,21.084,0,0,1-2.619,7.763C86.458,36.257,84.11,35.762,81.762,35.363Zm-25.8,6.181c1.485-.351,3-.655,4.5-.894a33.311,33.311,0,0,0,1.773,5.1A21.1,21.1,0,0,1,55.967,41.544ZM65.9,40.011a65.159,65.159,0,0,1,9.344,0c-1.406,4.776-3.354,7.443-4.664,7.443C69.256,47.454,67.307,44.787,65.9,40.011ZM64.209,23.735a51.39,51.39,0,0,1,.559-5.574c1.949.176,3.881.255,5.83.255s3.9-.1,5.83-.255a51.8,51.8,0,0,1,.559,5.574ZM59.385,35.363A67.592,67.592,0,0,0,52.341,36.9a20.608,20.608,0,0,1-2.619-7.763H58.81A57.06,57.06,0,0,0,59.385,35.363ZM80.676,12.2a31.685,31.685,0,0,0-1.789-5.1,20.833,20.833,0,0,1,6.293,4.217C83.695,11.66,82.194,11.963,80.676,12.2Zm-5.446.639a65.16,65.16,0,0,1-9.344,0C67.292,8.066,69.24,5.4,70.55,5.4,71.892,5.383,73.824,8.082,75.23,12.842ZM62.276,7.108a32.246,32.246,0,0,0-1.789,5.1c-1.5-.255-3-.527-4.5-.894A20.777,20.777,0,0,1,62.276,7.108ZM59.385,17.49a60.865,60.865,0,0,0-.591,6.245H49.706a21.084,21.084,0,0,1,2.619-7.763C54.673,16.6,57.021,17.106,59.385,17.49Zm-46.24,4.233h31.45a26.883,26.883,0,0,0-.431,4.7c0,.224.032.463.032.687H21.227a2.7,2.7,0,0,0-2.7,2.7V69.416a2.7,2.7,0,0,0,2.7,2.7H75.789a2.7,2.7,0,0,0,2.7-2.7V51.606a26.659,26.659,0,0,0,5.383-2.38V77.514H13.145Z" fill="#344248"/>
    </g>
  </g>
</svg>
