<svg xmlns="http://www.w3.org/2000/svg" width="86" height="68" viewBox="0 0 86 68">
  <g id="Group_71" data-name="Group 71" transform="translate(-640 -627)">
    <g id="Component_48_1" data-name="Component 48 – 1" transform="translate(640 627)">
      <g id="Group_68" data-name="Group 68" transform="translate(-468 -627)">
        <g id="Rectangle_24" data-name="Rectangle 24" transform="translate(486 627)" fill="none" stroke="#bbc5d5" stroke-width="2">
          <rect width="50" height="50" rx="4" stroke="none"/>
          <rect x="1" y="1" width="48" height="48" rx="3" fill="none"/>
        </g>
      </g>
      <g id="Group_69" data-name="Group 69" transform="translate(-486 -627)" opacity="0">
        <rect id="Rectangle_25" data-name="Rectangle 25" width="86" height="18" rx="2" transform="translate(486 677)" fill="#bbc5d5"/>
        <text id="RyPam_Banks_" data-name="RyPam (Banks)" transform="translate(488 690)" fill="#354052" font-size="12" font-family="Raleway"><tspan x="0" y="0">RyPam (Banks)</tspan></text>
      </g>
    </g>
    <path id="Icon_ionic-md-apps" data-name="Icon ionic-md-apps" d="M6.75,13.75h7v-7h-7Zm10.5,21h7v-7h-7Zm-10.5,0h7v-7h-7Zm0-10.5h7v-7h-7Zm10.5,0h7v-7h-7Zm10.5-17.5v7h7v-7Zm-10.5,7h7v-7h-7Zm10.5,10.5h7v-7h-7Zm0,10.5h7v-7h-7Z" transform="translate(662.25 631.25)" fill="#fbb900"/>
  </g>
</svg>
