<svg id="user" xmlns="http://www.w3.org/2000/svg" xmlns:xlink="http://www.w3.org/1999/xlink" width="90" height="95" viewBox="0 0 90 95">
  <defs>
    <clipPath id="clip-path">
      <ellipse id="Ellipse_11" data-name="Ellipse 11" cx="45" cy="42.552" rx="45" ry="42.552" fill="#322a7d"/>
    </clipPath>
  </defs>
  <path id="Path_65" data-name="Path 65" d="M45,0C69.851,0,90,19.139,90,42.749S69.851,85.5,45,85.5,0,66.359,0,42.749,20.147,0,45,0Z" transform="translate(0 9.502)" fill="#354052"/>
  <ellipse id="Ellipse_6" data-name="Ellipse 6" cx="4.45" cy="4.228" rx="4.45" ry="4.228" transform="translate(60.328 25.474)" fill="#d98f67"/>
  <ellipse id="Ellipse_7" data-name="Ellipse 7" cx="4.45" cy="4.228" rx="4.45" ry="4.228" transform="translate(21.758 25.474)" fill="#d98f67"/>
  <path id="Path_4" data-name="Path 4" d="M27.6,49.175,17,37.088V25H38.206V37.088Z" transform="translate(17.646 17.307)" fill="#d98f67"/>
  <path id="Path_5" data-name="Path 5" d="M51.172,17.844C51.172,2.533,13,7.771,13,17.844v14.1c0,10.073,8.483,18.132,19.086,18.132s19.086-8.058,19.086-18.132Z" transform="translate(13.164 0.288)" fill="#e59e76"/>
  <path id="Path_6" data-name="Path 6" d="M33.206,4C20.271,4,12,13.872,12,26.161v4.634l4.241,3.425V24.146l25.448-8.058,8.483,8.058V34.219l4.241-3.425V26.161c0-8.058-2.121-16.117-12.724-18.132L39.568,4H33.206Z" transform="translate(12.043 -4)" fill="#000001"/>
  <g id="Mask_Group_1" data-name="Mask Group 1" transform="translate(0 9.896)" clip-path="url(#clip-path)">
    <path id="Path_7" data-name="Path 7" d="M50.534,31h0a26.855,26.855,0,0,1-10.6,2.015A26.855,26.855,0,0,1,29.327,31S6,35.029,6,57.19L42.517,95.025,73.861,57.19C73.861,35.029,50.534,31,50.534,31Z" transform="translate(5.319 13.499)" fill="#fbb900"/>
  </g>
</svg>
