<svg xmlns="http://www.w3.org/2000/svg" width="36" height="36" viewBox="0 0 36 36">
  <path id="Icon_awesome-network-wired" data-name="Icon awesome-network-wired" d="M36,18.563V17.438a1.031,1.031,0,0,0-.9-1.125H19.35V13.5H23.4a2.063,2.063,0,0,0,1.8-2.25v-9A2.063,2.063,0,0,0,23.4,0H12.6a2.063,2.063,0,0,0-1.8,2.25v9a2.063,2.063,0,0,0,1.8,2.25h4.05v2.813H.9A1.031,1.031,0,0,0,0,17.438v1.125a1.031,1.031,0,0,0,.9,1.125H6.75V22.5H3.6a2.063,2.063,0,0,0-1.8,2.25v9A2.063,2.063,0,0,0,3.6,36h9a2.063,2.063,0,0,0,1.8-2.25v-9a2.063,2.063,0,0,0-1.8-2.25H9.45V19.688h17.1V22.5H23.4a2.063,2.063,0,0,0-1.8,2.25v9A2.063,2.063,0,0,0,23.4,36h9a2.063,2.063,0,0,0,1.8-2.25v-9a2.063,2.063,0,0,0-1.8-2.25H29.25V19.688H35.1A1.031,1.031,0,0,0,36,18.563ZM14.4,9V4.5h7.2V9ZM10.8,31.5H5.4V27h5.4Zm19.8,0H25.2V27h5.4Z" fill="#fbb900"/>
</svg>
