<svg xmlns="http://www.w3.org/2000/svg" width="32" height="31" viewBox="0 0 32 31">
  <path id="Path_thought-bubble" data-name="Path / thought-bubble" d="M4.4,29.105A2.448,2.448,0,0,1,4.4,34a2.448,2.448,0,0,1,0-4.895m8-4.895a4.08,4.08,0,1,1-4,4.079,4.04,4.04,0,0,1,4-4.079M22,22.579a6.224,6.224,0,0,1-4.8-2.2,6.224,6.224,0,0,1-4.8,2.2A6.429,6.429,0,0,1,6.112,17.26,6.556,6.556,0,0,1,2,11.158,6.464,6.464,0,0,1,8.4,4.632a8.046,8.046,0,0,1,1.232.114A6.421,6.421,0,0,1,14,3a6.225,6.225,0,0,1,4.8,2.2A6.224,6.224,0,0,1,23.6,3a6.429,6.429,0,0,1,6.288,5.319A6.556,6.556,0,0,1,34,14.421a6.464,6.464,0,0,1-6.4,6.526l-1.232-.114A6.421,6.421,0,0,1,22,22.579Z" transform="translate(-2 -3)" fill="#fbb900"/>
</svg>
