<svg xmlns="http://www.w3.org/2000/svg" width="6.427" height="32.004" viewBox="0 0 6.427 32.004">
  <path id="Path_information-variant" data-name="Path / information-variant" d="M13.5,4C12.672,4,12,5.343,12,7s.672,3,1.5,3S15,8.656,15,7s-.672-3-1.5-3m-.36,9.539c-1.19.2-4.44,5.379-4.44,5.379-.2.3-.14.28.02.84.16.54.14.58.33.32s.53-.68,1.08-1.36c2.12-2.72.34,3.56-.57,14.138-.36,5.239,2,2.54,2.61,1.74.6-.78,2.21-3,2.37-3.22.22-.3.06-.54-.11-1.04-.12-.34-.24-.1-.24-.1-.65.86-1.84,2.66-2,1.52-.19-1.14,1.03-8.959,1.7-14.338C14,16.138,14.3,13.339,13.14,13.539Z" transform="translate(-8.573 -4)" fill="#fbb900"/>
</svg>
