<svg xmlns="http://www.w3.org/2000/svg" width="35" height="27" viewBox="0 0 35 27">
  <path id="Path_email-plus" data-name="Path / email-plus" d="M4.043,4A2.938,2.938,0,0,0,1,6.842V23.895a2.948,2.948,0,0,0,3.043,2.842H20.92a7.382,7.382,0,0,1-.137-1.421c0-4.709,4.088-8.526,9.13-8.526a9.03,9.03,0,0,1,1.522.128V6.842A2.947,2.947,0,0,0,28.391,4H4.043m0,2.842,12.174,7.105L28.391,6.842V9.684L16.217,16.789,4.043,9.684V6.842M28.391,19.632v4.263H23.826v2.842h4.565V31h3.043V26.737H36V23.895H31.435V19.632Z" transform="translate(-1 -4)" fill="#fbb900"/>
</svg>
