<svg xmlns="http://www.w3.org/2000/svg" width="34" height="34" viewBox="0 0 34 34">
  <path id="Path_web-box" data-name="Path / web-box" d="M14.239,22.644H9.762a10.389,10.389,0,0,1,0-5.289h4.477A21.835,21.835,0,0,0,14.05,20a21.836,21.836,0,0,0,.189,2.644m-3.381-7.933h3.853a22.78,22.78,0,0,1,1.851-4.7,10.483,10.483,0,0,0-5.7,4.7m18.284,0a10.559,10.559,0,0,0-5.723-4.7,20.683,20.683,0,0,1,1.832,4.7M20,30.521a17.944,17.944,0,0,0,2.531-5.232H17.469A17.944,17.944,0,0,0,20,30.521M20,9.46a18,18,0,0,0-2.531,5.251h5.062A18,18,0,0,0,20,9.46M10.858,25.289a10.6,10.6,0,0,0,5.7,4.7,22.78,22.78,0,0,1-1.851-4.7M37,6.778V33.222A3.778,3.778,0,0,1,33.222,37H6.778A3.778,3.778,0,0,1,3,33.222V6.778A3.778,3.778,0,0,1,6.778,3H33.222A3.778,3.778,0,0,1,37,6.778M33.222,20A13.222,13.222,0,1,0,20,33.222,13.222,13.222,0,0,0,33.222,20M25.95,20a21.835,21.835,0,0,1-.189,2.644h4.477a10.389,10.389,0,0,0,0-5.289H25.761A21.835,21.835,0,0,1,25.95,20m-2.531,9.992a10.616,10.616,0,0,0,5.723-4.7H25.251a20.683,20.683,0,0,1-1.832,4.7M16.9,17.356a16.641,16.641,0,0,0,0,5.289h6.2A19.457,19.457,0,0,0,23.306,20a19.287,19.287,0,0,0-.208-2.644Z" transform="translate(-3 -3)" fill="#fbb900"/>
</svg>
