<svg xmlns="http://www.w3.org/2000/svg" width="28" height="24" viewBox="0 0 28 24">
  <path id="Path_book-open-page-variant" data-name="Path / book-open-page-variant" d="M23.909,2,17.545,7.4V20.6l6.364-5.4V2M8,5.6A12.378,12.378,0,0,0,1,7.4V24.992a.666.666,0,0,0,.636.6c.127,0,.191-.084.318-.084A16.305,16.305,0,0,1,8,24.2,12.378,12.378,0,0,1,15,26a16.048,16.048,0,0,1,7-1.8,13.619,13.619,0,0,1,6.045,1.272.584.584,0,0,0,.318.036.666.666,0,0,0,.636-.6V7.4a8.9,8.9,0,0,0-2.545-1.2V22.4A15.624,15.624,0,0,0,22,21.8a16.048,16.048,0,0,0-7,1.8V7.4A12.378,12.378,0,0,0,8,5.6Z" transform="translate(-1 -2)" fill="#fbb900"/>
</svg>
